<svg xmlns="http://www.w3.org/2000/svg" version="1.2" width="92.151" height="11.138" viewBox="0 0 92.150589 11.138"><g fill="#ccc"><path d="M9.457 2.708c.68.88 1.244 1.872 1.68 2.94V0H6.343c1.154.623 2.21 1.535 3.115 2.708zM2.543.602C1.655.602.8.792 0 1.142v9.996h10.648C10.565 5.308 6.962.602 2.543.602" fill-rule="evenodd"/><g><path d="M17.5 9.416l5.95-7.202h-5.762V.644h8.067v1.31l-5.95 7.203h5.95v1.57H17.5v-1.31zM27.973.643h7.463v1.6H29.73v2.592h5.058v1.6H29.73v2.693h5.777v1.6h-7.534V.642zM37.625.643h4.495c.634 0 1.195.09 1.685.267.49.178.898.425 1.225.742.27.278.475.6.62.965.143.365.215.768.215 1.21v.03c0 .412-.06.784-.18 1.115-.12.332-.286.625-.497.88-.21.253-.463.47-.756.647-.293.177-.617.314-.972.41l2.722 3.817h-2.09L41.61 7.212H39.383v3.515h-1.758V.643zm4.36 5c.634 0 1.14-.153 1.516-.457.377-.303.565-.716.565-1.237v-.03c0-.55-.184-.967-.55-1.25-.366-.285-.88-.428-1.546-.428h-2.587v3.4h2.6zM52.852 10.9c-.778 0-1.49-.137-2.132-.41-.643-.274-1.195-.646-1.656-1.117-.462-.47-.822-1.02-1.08-1.65-.26-.628-.39-1.298-.39-2.01v-.028c0-.71.13-1.38.39-2.01.258-.628.623-1.18 1.094-1.656.47-.476 1.027-.853 1.67-1.132C51.393.61 52.104.47 52.882.47c.78 0 1.49.137 2.133.41.643.274 1.196.647 1.657 1.117.46.47.82 1.02 1.08 1.65.26.63.39 1.3.39 2.01v.028c0 .71-.13 1.38-.39 2.01-.26.63-.624 1.18-1.095 1.656-.47.477-1.027.854-1.67 1.132-.644.278-1.355.418-2.133.418zm.03-1.628c.496 0 .953-.093 1.37-.28.415-.188.77-.442 1.067-.764.295-.322.528-.7.695-1.13.167-.433.25-.894.25-1.384v-.03c0-.488-.083-.952-.25-1.39-.167-.436-.402-.815-.703-1.137-.3-.32-.662-.578-1.083-.77-.422-.193-.88-.29-1.378-.29-.497 0-.954.095-1.37.282-.416.187-.772.44-1.07.763-.295.322-.527.698-.695 1.13-.167.433-.25.894-.25 1.384v.028c0 .49.083.954.25 1.39.168.438.402.817.704 1.14.302.32.663.577 1.084.77.42.19.88.287 1.377.287zM60.285.643h3.76c.788 0 1.51.128 2.168.382.658.255 1.225.608 1.7 1.06.476.45.843.98 1.102 1.59.26.61.39 1.27.39 1.982v.03c0 .71-.13 1.372-.39 1.986-.26.615-.626 1.148-1.102 1.6-.475.45-1.042.806-1.7 1.065-.658.26-1.38.39-2.168.39h-3.76V.642zm3.746 8.485c.53 0 1.01-.084 1.44-.253.433-.17.8-.405 1.103-.708.303-.304.538-.666.706-1.086.167-.418.252-.874.252-1.366v-.03c0-.49-.085-.95-.253-1.373-.17-.423-.404-.787-.707-1.09-.302-.305-.67-.544-1.102-.717-.43-.174-.91-.26-1.44-.26h-1.987v6.885h1.988zM71.55.643h1.758v4.192h4.84V.643h1.758v10.084H78.15v-4.25h-4.842v4.25H71.55V.643zM86.07.57h1.644l4.437 10.157H90.28l-1.023-2.434h-4.768l-1.038 2.434h-1.816L86.07.57zm2.537 6.153L86.864 2.69l-1.73 4.033h3.473z"/></g></g></svg>